<svg width="24" height="26" viewBox="0 0 24 26" fill="none" xmlns="http://www.w3.org/2000/svg">
<path d="M23 7.37482V18.6252C23.0001 18.7548 22.9651 18.8822 22.8987 18.9939C22.8322 19.1057 22.7368 19.1978 22.6223 19.2607L12.3557 24.9089C12.2468 24.9686 12.1244 25 12 25C11.8756 25 11.7532 24.9686 11.6443 24.9089L1.37767 19.2607C1.26317 19.1978 1.16775 19.1057 1.10134 18.9939C1.03493 18.8822 0.999936 18.7548 1 18.6252V7.37482C1.00015 7.24536 1.03525 7.11828 1.10165 7.00676C1.16805 6.89523 1.26335 6.80332 1.37767 6.74052L11.6443 1.09114C11.7532 1.03136 11.8756 1 12 1C12.1244 1 12.2468 1.03136 12.3557 1.09114L22.6223 6.74052C22.7367 6.80332 22.8319 6.89523 22.8983 7.00676C22.9648 7.11828 22.9998 7.24536 23 7.37482Z" stroke="#BBBBBB" stroke-width="2" stroke-linecap="round" stroke-linejoin="round"/>
<path d="M1.64551 7.30355L11.6433 12.804C11.7523 12.864 11.8749 12.8955 11.9996 12.8955C12.1242 12.8955 12.2469 12.864 12.3558 12.804L22.3891 7.28418M12.0002 23.8946V13.0001" stroke="#BBBBBB" stroke-width="2" stroke-linecap="round" stroke-linejoin="round"/>
</svg>
