<svg width="28" height="28" viewBox="0 0 28 28" fill="none" xmlns="http://www.w3.org/2000/svg">
<path d="M24.4885 20.9883L18.7252 15.225L16.2518 17.6983L22.0152 23.4617C22.7035 24.15 23.8118 24.15 24.4885 23.4617C25.1652 22.7733 25.1652 21.665 24.4885 20.9883ZM20.5918 11.6667C22.8435 11.6667 24.6752 9.83502 24.6752 7.58335C24.6752 6.90668 24.4885 6.27668 24.1968 5.71668L21.0468 8.86668L19.3085 7.12835L22.4585 3.97835C21.8985 3.68668 21.2685 3.50002 20.5918 3.50002C18.3402 3.50002 16.5085 5.33168 16.5085 7.58335C16.5085 8.06168 16.6018 8.51668 16.7535 8.93668L14.5952 11.095L12.5185 9.01835C12.6267 8.91042 12.7125 8.78221 12.771 8.64108C12.8295 8.49994 12.8597 8.34865 12.8597 8.19585C12.8597 8.04305 12.8295 7.89176 12.771 7.75062C12.7125 7.60949 12.6267 7.48128 12.5185 7.37335L11.6902 6.54502L14.1635 4.07168C13.5072 3.41625 12.6177 3.0481 11.6902 3.0481C10.7627 3.0481 9.87308 3.41625 9.21683 4.07168L5.92683 7.37335C5.81868 7.48128 5.73287 7.60949 5.67433 7.75062C5.61578 7.89176 5.58565 8.04305 5.58565 8.19585C5.58565 8.34865 5.61578 8.49994 5.67433 8.64108C5.73287 8.78221 5.81868 8.91042 5.92683 9.01835L6.75516 9.84668H3.79183C3.57016 9.84668 3.36016 9.92835 3.2085 10.0917C3.13089 10.1677 3.06924 10.2585 3.02715 10.3586C2.98506 10.4588 2.96338 10.5664 2.96338 10.675C2.96338 10.7837 2.98506 10.8912 3.02715 10.9914C3.06924 11.0916 3.13089 11.1823 3.2085 11.2583L6.17183 14.2217C6.24787 14.2993 6.33863 14.3609 6.43879 14.403C6.53896 14.4451 6.64652 14.4668 6.75516 14.4668C6.86381 14.4668 6.97137 14.4451 7.07154 14.403C7.1717 14.3609 7.26246 14.2993 7.3385 14.2217C7.49016 14.07 7.5835 13.86 7.5835 13.6383V10.675L8.40016 11.4917C8.85516 11.9467 9.59016 11.9467 10.0452 11.4917L12.1218 13.5683L4.7135 20.9767C4.54983 21.1384 4.41988 21.3309 4.33119 21.5432C4.2425 21.7555 4.19683 21.9833 4.19683 22.2133C4.19683 22.4434 4.2425 22.6712 4.33119 22.8835C4.41988 23.0958 4.54983 23.2883 4.7135 23.45C5.40183 24.1383 6.51016 24.1383 7.18683 23.45L19.2268 11.4217C19.6585 11.5733 20.1135 11.6667 20.5918 11.6667Z" fill="#BBBBBB"/>
</svg>
