<svg width="28" height="28" viewBox="0 0 28 28" fill="none" xmlns="http://www.w3.org/2000/svg">
<path fill-rule="evenodd" clip-rule="evenodd" d="M11.2582 4.66659L7.62865 12.8333H11.6502C12.4552 12.8333 13.0222 13.6208 12.7678 14.3849L10.8358 20.1798L19.3502 11.6666H16.3518C16.1509 11.6665 15.9534 11.6152 15.778 11.5173C15.6026 11.4194 15.4551 11.2784 15.3495 11.1075C15.244 10.9366 15.1839 10.7415 15.1749 10.5408C15.1659 10.3402 15.2084 10.1405 15.2983 9.96092L17.9455 4.66659H11.2582ZM9.43115 3.03325C9.62015 2.60742 10.0413 2.33325 10.508 2.33325H19.8145C20.6895 2.33325 21.26 3.25492 20.868 4.03892L18.2208 9.33325H22.1385C23.1885 9.33325 23.7135 10.6026 22.9715 11.3446L9.02632 25.2898C8.14665 26.1694 6.68132 25.2641 7.07565 24.0846L10.0483 15.1666H5.85065C5.65435 15.1666 5.46117 15.1175 5.28864 15.0239C5.11611 14.9303 4.96971 14.795 4.86273 14.6304C4.75575 14.4658 4.69158 14.2771 4.67606 14.0815C4.66053 13.8858 4.69413 13.6893 4.77382 13.5099L9.43115 3.03325Z" fill="#BBBBBB"/>
</svg>
