<svg width="28" height="28" viewBox="0 0 28 28" fill="none" xmlns="http://www.w3.org/2000/svg">
<path d="M4.88814 21.538H3.63162M4.88814 21.538L4.9672 23.9946M4.88814 21.538H23.1119M3.63162 21.538C2.88103 21.538 2.28372 21.2991 1.76602 20.8008M3.63162 21.538C2.9481 21.538 2.26113 21.2781 1.76602 20.8008M3.63162 21.538H24.3684M1.76602 20.8008C1.24831 20.3026 1 19.7278 1 19.0054M1.76602 20.8008C1.26976 20.3243 1 19.6635 1 19.0054M1 19.0054V12.769M1 12.769C1 12.0467 1.24831 11.4718 1.76602 10.9736M1 12.769C1 12.1105 1.27035 11.4506 1.76602 10.9736M1.76602 10.9736C2.28372 10.4754 2.88103 10.2364 3.63162 10.2364M1.76602 10.9736C2.26172 10.4966 2.94865 10.2364 3.63162 10.2364M3.63162 10.2364H4.88814M3.63162 10.2364C4.31456 10.2364 4.94822 10.549 5.4442 11.0246M4.88814 10.2364L5.4442 11.0246M4.88814 10.2364V6.53261M4.88814 6.53261C4.88814 5.81025 5.13645 5.23542 5.65416 4.73719M4.88814 6.53261C4.88814 5.87536 5.15991 5.21451 5.65416 4.73719M5.65416 4.73719C6.17187 4.23896 6.76917 4 7.51976 4M5.65416 4.73719C6.15013 4.26154 6.83683 4 7.51976 4M7.51976 4H20.4802M20.4802 4C21.2308 4 21.8281 4.23896 22.3458 4.73719M20.4802 4C21.1632 4 21.8501 4.26014 22.3458 4.73719M22.3458 4.73719C22.8636 5.23542 23.1119 5.81025 23.1119 6.53261M22.3458 4.73719C22.8415 5.21421 23.1119 5.87404 23.1119 6.53261M23.1119 6.53261V10.2364M23.1119 10.2364H24.3684M23.1119 10.2364L22.5571 11.0246M24.3684 10.2364C25.119 10.2364 25.7163 10.4754 26.234 10.9736M24.3684 10.2364C25.0514 10.2364 25.7383 10.4966 26.234 10.9736M24.3684 10.2364C23.6854 10.2364 23.0528 10.5476 22.5571 11.0246M26.234 10.9736C26.7517 11.4718 27 12.0467 27 12.769M26.234 10.9736C26.7296 11.4506 27 12.1105 27 12.769M27 12.769V19.0054M27 19.0054C27 19.7278 26.7517 20.3026 26.234 20.8008M27 19.0054C27 19.6634 26.7301 20.3243 26.234 20.8008M26.234 20.8008C25.7163 21.2991 25.119 21.538 24.3684 21.538M26.234 20.8008C25.7388 21.2783 25.052 21.538 24.3684 21.538M24.3684 21.538H23.1119M23.1119 21.538V23.9946M23.1119 23.9946C23.1119 23.9887 23.1119 24.0085 23.1119 23.9946ZM23.1119 23.9946C23.1264 23.9946 23.1057 23.9946 23.1119 23.9946ZM23.1119 23.9946C23.118 23.9946 23.0973 23.9946 23.1119 23.9946ZM4.9672 23.9946C4.9672 23.9886 4.9672 24.0094 4.9672 23.9946ZM4.9672 23.9946C4.98277 23.9946 4.96115 23.9946 4.9672 23.9946ZM4.9672 23.9946C4.97325 23.9946 4.95163 23.9946 4.9672 23.9946ZM5.4442 11.0246C5.93845 11.502 6.18419 12.1118 6.18419 12.769M5.4442 11.0246C5.72679 11.2815 5.86811 11.452 6.03949 11.7819C6.18159 12.0554 6.18419 12.3768 6.18419 12.769M22.5571 11.0246C22.0614 11.5017 21.8158 12.1105 21.8158 12.769M22.5571 11.0246C22.2745 11.2815 22.1319 11.452 21.9605 11.7819C21.8184 12.0554 21.8158 12.3768 21.8158 12.769M21.8158 12.769V16.5364C21.8158 16.5433 21.81 16.5489 21.8028 16.5489H6.19719C6.19001 16.5489 6.18419 16.5433 6.18419 16.5364V12.769" stroke="#BBBBBB" stroke-width="2" stroke-linecap="round" stroke-linejoin="round"/>
</svg>
