<svg width="28" height="28" viewBox="0 0 28 28" fill="none" xmlns="http://www.w3.org/2000/svg">
<path d="M13.9998 17.5001C14.9721 17.5001 15.7984 17.1598 16.479 16.4792C17.1596 15.7987 17.4998 14.9723 17.4998 14.0001C17.4998 13.0279 17.1596 12.2015 16.479 11.5209C15.7984 10.8404 14.9721 10.5001 13.9998 10.5001C13.0276 10.5001 12.2012 10.8404 11.5207 11.5209C10.8401 12.2015 10.4998 13.0279 10.4998 14.0001C10.4998 14.9723 10.8401 15.7987 11.5207 16.4792C12.2012 17.1598 13.0276 17.5001 13.9998 17.5001ZM13.9998 19.8334C12.3859 19.8334 11.0104 19.2645 9.87334 18.1266C8.73545 16.9895 8.1665 15.614 8.1665 14.0001C8.1665 12.3862 8.73545 11.0103 9.87334 9.87241C11.0104 8.7353 12.3859 8.16675 13.9998 8.16675C15.6137 8.16675 16.9896 8.7353 18.1275 9.87241C19.2646 11.0103 19.8332 12.3862 19.8332 14.0001C19.8332 15.614 19.2646 16.9895 18.1275 18.1266C16.9896 19.2645 15.6137 19.8334 13.9998 19.8334ZM2.33317 15.1667C2.00261 15.1667 1.72573 15.0547 1.5025 14.8307C1.2785 14.6075 1.1665 14.3306 1.1665 14.0001C1.1665 13.6695 1.2785 13.3922 1.5025 13.1682C1.72573 12.945 2.00261 12.8334 2.33317 12.8334H4.6665C4.99706 12.8334 5.27434 12.945 5.49834 13.1682C5.72156 13.3922 5.83317 13.6695 5.83317 14.0001C5.83317 14.3306 5.72156 14.6075 5.49834 14.8307C5.27434 15.0547 4.99706 15.1667 4.6665 15.1667H2.33317ZM23.3332 15.1667C23.0026 15.1667 22.7257 15.0547 22.5025 14.8307C22.2785 14.6075 22.1665 14.3306 22.1665 14.0001C22.1665 13.6695 22.2785 13.3922 22.5025 13.1682C22.7257 12.945 23.0026 12.8334 23.3332 12.8334H25.6665C25.9971 12.8334 26.2739 12.945 26.4972 13.1682C26.7212 13.3922 26.8332 13.6695 26.8332 14.0001C26.8332 14.3306 26.7212 14.6075 26.4972 14.8307C26.2739 15.0547 25.9971 15.1667 25.6665 15.1667H23.3332ZM13.9998 5.83341C13.6693 5.83341 13.3924 5.72141 13.1692 5.49741C12.9452 5.27419 12.8332 4.9973 12.8332 4.66675V2.33341C12.8332 2.00286 12.9452 1.72558 13.1692 1.50158C13.3924 1.27836 13.6693 1.16675 13.9998 1.16675C14.3304 1.16675 14.6077 1.27836 14.8317 1.50158C15.0549 1.72558 15.1665 2.00286 15.1665 2.33341V4.66675C15.1665 4.9973 15.0549 5.27419 14.8317 5.49741C14.6077 5.72141 14.3304 5.83341 13.9998 5.83341ZM13.9998 26.8334C13.6693 26.8334 13.3924 26.7214 13.1692 26.4974C12.9452 26.2742 12.8332 25.9973 12.8332 25.6667V23.3334C12.8332 23.0029 12.9452 22.726 13.1692 22.5027C13.3924 22.2787 13.6693 22.1667 13.9998 22.1667C14.3304 22.1667 14.6077 22.2787 14.8317 22.5027C15.0549 22.726 15.1665 23.0029 15.1665 23.3334V25.6667C15.1665 25.9973 15.0549 26.2742 14.8317 26.4974C14.6077 26.7214 14.3304 26.8334 13.9998 26.8334ZM6.5915 8.22508L5.33734 7.00008C5.104 6.78619 4.992 6.51397 5.00134 6.18341C5.01145 5.85286 5.12345 5.57091 5.33734 5.33758C5.57067 5.10425 5.85261 4.98758 6.18317 4.98758C6.51373 4.98758 6.78595 5.10425 6.99984 5.33758L8.22484 6.59175C8.43873 6.82508 8.54567 7.0973 8.54567 7.40841C8.54567 7.71953 8.43873 7.99175 8.22484 8.22508C8.01095 8.45841 7.74378 8.57003 7.42334 8.55991C7.10211 8.55058 6.82484 8.43897 6.5915 8.22508ZM20.9998 22.6626L19.7748 21.4084C19.5609 21.1751 19.454 20.8982 19.454 20.5777C19.454 20.2565 19.5609 19.989 19.7748 19.7751C19.9887 19.5417 20.2563 19.4301 20.5775 19.4402C20.8979 19.4496 21.1748 19.5612 21.4082 19.7751L22.6623 21.0001C22.8957 21.214 23.0077 21.4862 22.9983 21.8167C22.9882 22.1473 22.8762 22.4292 22.6623 22.6626C22.429 22.8959 22.1471 23.0126 21.8165 23.0126C21.4859 23.0126 21.2137 22.8959 20.9998 22.6626ZM19.7748 8.22508C19.5415 8.01119 19.4299 7.74364 19.44 7.42241C19.4493 7.10197 19.5609 6.82508 19.7748 6.59175L20.9998 5.33758C21.2137 5.10425 21.4859 4.99225 21.8165 5.00158C22.1471 5.01169 22.429 5.12369 22.6623 5.33758C22.8957 5.57091 23.0123 5.85286 23.0123 6.18341C23.0123 6.51397 22.8957 6.78619 22.6623 7.00008L21.4082 8.22508C21.1748 8.43897 20.9026 8.54591 20.5915 8.54591C20.2804 8.54591 20.0082 8.43897 19.7748 8.22508ZM5.33734 22.6626C5.104 22.4292 4.98734 22.1473 4.98734 21.8167C4.98734 21.4862 5.104 21.214 5.33734 21.0001L6.5915 19.7751C6.82484 19.5612 7.10211 19.4542 7.42334 19.4542C7.74378 19.4542 8.01095 19.5612 8.22484 19.7751C8.45817 19.989 8.57017 20.2565 8.56084 20.5777C8.55073 20.8982 8.43873 21.1751 8.22484 21.4084L6.99984 22.6626C6.78595 22.8959 6.51373 23.0075 6.18317 22.9974C5.85261 22.9881 5.57067 22.8765 5.33734 22.6626Z" fill="#BBBBBB"/>
</svg>
