<svg width="28" height="28" viewBox="0 0 28 28" fill="none" xmlns="http://www.w3.org/2000/svg">
<path d="M9.975 23.3333H18.025L19.1917 18.6666H8.80833L9.975 23.3333ZM9.975 25.6666C9.43056 25.6666 8.95417 25.5013 8.54583 25.1708C8.1375 24.8402 7.86528 24.4124 7.72917 23.8874L6.41667 18.6666H21.5833L20.2708 23.8874C20.1347 24.4124 19.8625 24.8402 19.4542 25.1708C19.0458 25.5013 18.5694 25.6666 18.025 25.6666H9.975ZM5.83333 16.3333H22.1667V13.9999H5.83333V16.3333ZM14 9.33325C14 7.38881 14.6806 5.73603 16.0417 4.37492C17.4028 3.01381 19.0556 2.33325 21 2.33325C21 4.08325 20.4458 5.59992 19.3375 6.88325C18.2292 8.16659 16.8389 8.94436 15.1667 9.21659V11.6666H24.5V16.3333C24.5 16.9749 24.2717 17.524 23.8152 17.9806C23.3578 18.4379 22.8083 18.6666 22.1667 18.6666H5.83333C5.19167 18.6666 4.64217 18.4379 4.18483 17.9806C3.72828 17.524 3.5 16.9749 3.5 16.3333V11.6666H12.8333V9.21659C11.1611 8.94436 9.77083 8.16659 8.6625 6.88325C7.55417 5.59992 7 4.08325 7 2.33325C8.94444 2.33325 10.5972 3.01381 11.9583 4.37492C13.3194 5.73603 14 7.38881 14 9.33325Z" fill="#BBBBBB"/>
</svg>
