<svg width="28" height="28" viewBox="0 0 28 28" fill="none" xmlns="http://www.w3.org/2000/svg">
<g clip-path="url(#clip0_17_485)">
<path d="M22.0733 7.01159C21.84 6.32325 21.1867 5.83325 20.4167 5.83325H7.58333C6.81333 5.83325 6.17167 6.32325 5.92667 7.01159L3.5 13.9999V23.3333C3.5 23.9749 4.025 24.4999 4.66667 24.4999H5.83333C6.475 24.4999 7 23.9749 7 23.3333V22.1666H21V23.3333C21 23.9749 21.525 24.4999 22.1667 24.4999H23.3333C23.975 24.4999 24.5 23.9749 24.5 23.3333V13.9999L22.0733 7.01159ZM7.99167 8.16659H19.9967L21.2567 11.7949H6.73167L7.99167 8.16659ZM22.1667 19.8333H5.83333V13.9999H22.1667V19.8333Z" fill="#BBBBBB"/>
<path d="M8.75 18.6667C9.7165 18.6667 10.5 17.8832 10.5 16.9167C10.5 15.9502 9.7165 15.1667 8.75 15.1667C7.7835 15.1667 7 15.9502 7 16.9167C7 17.8832 7.7835 18.6667 8.75 18.6667Z" fill="#BBBBBB"/>
<path d="M19.25 18.6667C20.2165 18.6667 21 17.8832 21 16.9167C21 15.9502 20.2165 15.1667 19.25 15.1667C18.2835 15.1667 17.5 15.9502 17.5 16.9167C17.5 17.8832 18.2835 18.6667 19.25 18.6667Z" fill="#BBBBBB"/>
</g>
<defs>
<clipPath id="clip0_17_485">
<rect width="28" height="28" fill="white"/>
</clipPath>
</defs>
</svg>
