<svg width="24" height="24" viewBox="0 0 24 24" fill="none" xmlns="http://www.w3.org/2000/svg">
<path d="M3 10.1935L5.05714 13.8065L11.7429 20L19.9714 12.2581L21 7.6129L17.4 4L11.7429 5.03226L7.62857 4L4.02857 5.54839L3 10.1935Z" fill="#EE7700"/>
<path d="M20.1766 4.90686C19.1163 3.82835 17.7108 3.17009 16.2139 3.05098C14.7171 2.93188 13.2276 3.35978 12.0145 4.2574C10.7419 3.29704 9.15781 2.86157 7.58133 3.03867C6.00486 3.21578 4.55308 3.99231 3.51835 5.21189C2.48362 6.43147 1.9428 8.00351 2.0048 9.61143C2.06679 11.2194 2.727 12.7437 3.85246 13.8776L10.064 20.1896C10.5842 20.7089 11.2847 21 12.0145 21C12.7443 21 13.4449 20.7089 13.965 20.1896L20.1766 13.8776C21.3445 12.6855 22 11.073 22 9.39223C22 7.71146 21.3445 6.09897 20.1766 4.90686V4.90686ZM18.7663 12.4772L12.5547 18.779C12.484 18.8514 12.3999 18.9089 12.3072 18.9481C12.2144 18.9874 12.115 19.0076 12.0145 19.0076C11.9141 19.0076 11.8146 18.9874 11.7219 18.9481C11.6292 18.9089 11.5451 18.8514 11.4744 18.779L5.26282 12.4467C4.47838 11.6332 4.03912 10.5404 4.03912 9.40237C4.03912 8.26432 4.47838 7.17152 5.26282 6.35801C6.06218 5.55733 7.14027 5.10837 8.26359 5.10837C9.3869 5.10837 10.465 5.55733 11.2643 6.35801C11.3573 6.45312 11.468 6.52862 11.5899 6.58014C11.7117 6.63166 11.8425 6.65818 11.9745 6.65818C12.1066 6.65818 12.2373 6.63166 12.3592 6.58014C12.4811 6.52862 12.5917 6.45312 12.6847 6.35801C13.4841 5.55733 14.5622 5.10837 15.6855 5.10837C16.8088 5.10837 17.8869 5.55733 18.6862 6.35801C19.4815 7.16086 19.9351 8.24774 19.9501 9.38582C19.9651 10.5239 19.5401 11.6227 18.7663 12.4467V12.4772Z" fill="#EE7700"/>
</svg>
